<?xml version="1.0" encoding="utf-8"?>
<!-- Generator: Adobe Illustrator 18.1.1, SVG Export Plug-In . SVG Version: 6.00 Build 0)  -->
<svg version="1.1" id="Layer_1" xmlns="http://www.w3.org/2000/svg" xmlns:xlink="http://www.w3.org/1999/xlink" x="0px" y="0px"
	 viewBox="0 0 44.8 31.3" enable-background="new 0 0 44.8 31.3" xml:space="preserve">
<g>
	<path fill="#F39200" d="M21.8,2c2,1.1,3.6,2.7,5,4.6c1.5,2.2,2.4,4.6,2.6,7.1c0.1,0.9,0.1,1.9,0.1,3c0,6.2-2.7,8.6-4.8,10.7
		c-2.8,2-5.1,3.8-9.9,3.8c-1.6,0-6,1.1-11.9-5.1C1,24.1,0.1,21.6,0,18.6c-0.2-6,0.6-10.1,2.3-12.3c1.2-1.6,2.8-3,4.8-4.2
		c2.5-1.4,5-2.1,7.6-2.1C17.2,0,19.5,0.7,21.8,2z M22.7,19.4c0.2-2.1,0.1-15-7.6-15.1c-8.7,0.4-9,6.5-9.3,7.8
		c-0.2,1.1-0.2,2.2-0.2,3.3c0.2,10.5,4.8,13,7.9,13.3C20.1,28.6,22,25,22.7,19.4z"/>
</g>
<g>
	<path id="_x2E_svg_24_" fill="#F39200" d="M44,10.5c-1.8,1.8-5,3.1-7.2,4.5c-3.1,2-5.5,4.5-5.9,8.3c0.2,0.4,0.4,0.1,1.1-0.7
		c2-2.5,4-2.9,6.9-4.4c-0.2,2.4-2.5,2.4-4.3,6.1c-0.4,1-0.7,2.3,0.8,2.3c9-0.5,9.6-6.6,9.3-13.8C44.7,12.1,44.5,10.5,44,10.5z"/>
	<path id="_x2E_svg_11_" fill="#F39200" d="M34.7,21.9c0,0-0.1,0-0.2,0.1c-1.2,0.9-2.2,2-3.1,3.2c-0.7,0.9-1.9,2.3-1.5,3.5
		c0.1,0.2,0.3,0.3,0.5,0.2c2.5-1.4,3.2-4.3,4.7-6.5C35.2,22.1,34.9,21.9,34.7,21.9z"/>
</g>
<g>
</g>
<g>
</g>
<g>
</g>
<g>
</g>
<g>
</g>
<g>
</g>
<g>
</g>
<g>
</g>
<g>
</g>
<g>
</g>
<g>
</g>
<g>
</g>
<g>
</g>
<g>
</g>
<g>
</g>
</svg>
